<svg width="45" height="45" viewBox="0 0 45 45" fill="none" xmlns="http://www.w3.org/2000/svg">
<g clip-path="url(#clip0_320_77)">
<path d="M22.5 45C34.9264 45 45 34.9264 45 22.5C45 10.0736 34.9264 0 22.5 0C10.0736 0 0 10.0736 0 22.5C0 34.9264 10.0736 45 22.5 45Z" fill="white"/>
<path d="M15.4688 15.4688H9.84375V35.1562H15.4688V15.4688Z" fill="#182339"/>
<path d="M28.8267 15.4688C24.9019 15.4688 24.2269 16.9003 23.9062 18.2812V15.4688H18.2812V35.1562H23.9062V23.9062C23.9062 22.0823 24.8948 21.0938 26.7188 21.0938C28.4991 21.0938 29.5312 22.0612 29.5312 23.9062V35.1562H35.1562V25.3125C35.1562 19.6875 34.4236 15.4688 28.8267 15.4688Z" fill="#182339"/>
<path d="M12.6562 14.0625C14.2096 14.0625 15.4688 12.8033 15.4688 11.25C15.4688 9.6967 14.2096 8.4375 12.6562 8.4375C11.1029 8.4375 9.84375 9.6967 9.84375 11.25C9.84375 12.8033 11.1029 14.0625 12.6562 14.0625Z" fill="#182339"/>
</g>
<defs>
<clipPath id="clip0_320_77">
<rect width="45" height="45" fill="white"/>
</clipPath>
</defs>
</svg>
