<svg width="615" height="615" viewBox="0 0 615 615" fill="none" xmlns="http://www.w3.org/2000/svg">
<path d="M460.291 259.7L373.678 224.601L313.162 153.211V153.216C311.734 151.548 309.652 150.59 307.461 150.59C305.269 150.59 303.187 151.548 301.759 153.216L241.244 224.602L154.63 259.702C152.596 260.539 151.031 262.228 150.357 264.321C149.677 266.413 149.949 268.699 151.105 270.571L200.374 350.212L207.274 443.499C207.431 445.712 208.555 447.742 210.35 449.044C212.144 450.347 214.425 450.786 216.574 450.247L307.461 427.749L398.347 450.247C398.948 450.32 399.55 450.32 400.146 450.247C401.737 450.258 403.285 449.755 404.572 448.824C406.366 447.522 407.496 445.487 407.648 443.274L414.547 349.987L463.817 270.347C464.973 268.474 465.245 266.188 464.565 264.096C463.89 262.003 462.326 260.314 460.291 259.477L460.291 259.7ZM400.821 343.839C400.209 344.864 399.848 346.02 399.775 347.213L393.326 433.601L309.261 412.976C308.078 412.689 306.844 412.689 305.662 412.976L221.597 433.601L215.147 347.213C215.074 346.02 214.713 344.864 214.101 343.839L168.509 270.199L248.671 237.427C249.78 236.983 250.764 236.255 251.517 235.324L307.461 169.258L363.404 235.324C364.158 236.255 365.141 236.983 366.25 237.427L446.413 270.199L400.821 343.839Z" fill="black"/>
<path d="M524.929 89.6209H524.181C466.657 32.2336 388.718 0 307.461 0C226.204 0 148.268 32.2322 90.7401 89.6209C90.2327 89.8301 89.83 90.2381 89.6155 90.7455C32.2282 148.269 0 226.209 0 307.466C0 388.723 32.2269 466.659 89.6155 524.187C89.83 524.694 90.2328 525.097 90.7401 525.311C148.264 582.699 226.204 614.927 307.461 614.927C388.718 614.927 466.653 582.7 524.181 525.311L524.929 524.558C525.107 524.354 525.259 524.129 525.379 523.883C582.766 466.359 615 388.42 615 307.163C615 225.906 582.768 147.97 525.379 90.4421C525.269 90.1492 525.118 89.8719 524.929 89.6209ZM314.958 14.631C387.327 16.4566 456.421 45.2001 508.726 95.2438L471.231 132.739C428.803 92.7597 373.216 69.6856 314.958 67.8711V14.631ZM299.961 14.631L299.956 67.8711C241.7 69.6653 186.116 92.7129 143.683 132.661L106.188 95.1661C158.512 45.1532 227.601 16.4362 299.956 14.631H299.961ZM95.6139 105.816L133.109 143.311C93.1299 185.739 70.0558 241.327 68.2413 299.584H15.0012C16.8268 227.215 45.5703 158.121 95.6139 105.816ZM15.0012 314.596H68.2413C70.0354 372.852 93.083 428.436 133.031 470.869L95.5363 508.364C45.5234 456.04 16.8063 386.95 15.0012 314.596ZM299.963 599.557C227.593 597.731 158.5 568.988 106.194 518.944L143.689 481.449C186.117 521.428 241.705 544.502 299.963 546.317V599.557ZM83.0143 307.097C83.0143 247.57 106.663 190.479 148.756 148.386C190.844 106.293 247.933 82.6441 307.467 82.6441C367.001 82.6441 424.084 106.293 466.177 148.386C508.271 190.474 531.919 247.563 531.919 307.097C531.919 366.631 508.271 423.714 466.177 465.807C424.089 507.901 367.001 531.549 307.467 531.549C247.981 531.408 190.976 507.717 148.917 465.656C106.858 423.595 83.1643 366.589 83.0237 307.106L83.0143 307.097ZM314.96 599.557V546.317C373.217 544.523 428.8 521.475 471.234 481.527L508.729 519.022C456.405 569.035 387.315 597.752 314.96 599.557ZM519.308 508.372L481.813 470.877C521.792 428.449 544.866 372.861 546.68 314.604H599.92C598.095 386.973 569.351 456.067 519.308 508.372ZM546.68 299.592C544.886 241.336 521.839 185.752 481.89 143.319L519.385 105.824C569.398 158.148 598.115 227.238 599.92 299.592H546.68Z" fill="black"/>
</svg>
