<svg width="1089" height="131" viewBox="0 0 1089 131" fill="none" xmlns="http://www.w3.org/2000/svg">
<path d="M13.248 35.0805C11.663 34.3881 10.1932 33.4512 8.89023 32.3027C3.23978 42.0702 0.179419 53.1593 0.00763037 64.4877C-0.163872 75.8167 2.55829 86.9972 7.91048 96.9362C9.15475 95.6871 10.5705 94.6274 12.113 93.7923C7.35003 84.7138 4.95236 74.5462 5.15155 64.2593C5.34953 53.9726 8.13737 43.9089 13.248 35.0268V35.0805ZM64.4279 8.02771e-05C54.1825 -0.0162946 44.0836 2.47266 34.9835 7.25751C36.0781 8.64584 36.9483 10.2026 37.5618 11.868C45.8698 7.51591 55.0804 5.24328 64.4279 5.23969C76.4873 5.23384 88.2611 8.96392 98.1816 15.9324C108.101 22.9009 115.693 32.7774 119.947 44.2444C124.201 55.7102 124.913 68.2216 121.989 80.1123C119.065 92.0003 112.643 102.7 103.581 110.785C94.5176 118.87 83.2456 123.954 71.2652 125.361C59.2866 126.768 47.1698 124.43 36.5304 118.66C35.7247 120.225 34.6991 121.663 33.4883 122.931C45.0181 129.357 58.2078 132.045 71.2847 130.634C84.3615 129.225 96.7017 123.784 106.647 115.042C116.594 106.3 123.672 94.6763 126.931 81.731C130.188 68.7845 129.472 55.135 124.877 42.6143C120.282 30.0936 112.028 19.3015 101.222 11.6839C90.4178 4.06715 77.5781 -0.00890276 64.4279 0.00277475L64.4279 8.02771e-05Z" fill="#1F2937"/>
<path d="M98.8726 83.3141C93.5825 93.8853 83.8757 101.463 72.4599 103.935C61.0453 106.406 49.1412 103.508 40.0706 96.0453C30.9982 88.5843 25.7264 77.3583 25.7264 65.4981C25.7264 53.638 30.9982 42.412 40.0706 34.951C49.1418 27.4887 61.0459 24.5903 72.4599 27.0618C83.8757 29.5332 93.5825 37.111 98.8726 47.6822C100.256 47.3324 101.676 47.157 103.102 47.1582C103.531 47.1324 103.961 47.1324 104.391 47.1582C98.8464 34.6899 87.9712 25.5039 74.895 22.2428C61.8182 18.9806 47.9932 22.0077 37.3992 30.4512C26.804 38.8935 20.6161 51.8166 20.6161 65.4987C20.6161 79.1809 26.804 92.1031 37.3992 100.546C47.9932 108.99 61.8182 112.017 74.895 108.755C87.9706 105.494 98.8455 96.3076 104.391 83.8393C103.961 83.8651 103.531 83.8651 103.102 83.8393C101.677 83.8405 100.256 83.6651 98.8726 83.3153V83.3141Z" fill="#1F2937"/>
<path d="M27.8926 25.7532C25.9566 27.7181 23.3321 28.8211 20.5962 28.8187C19.6293 28.8187 18.667 28.6865 17.7347 28.4257C16.0646 27.9391 14.5406 27.0397 13.2998 25.8057C10.8112 23.1308 9.88697 19.3259 10.863 15.7819C11.8391 12.2367 14.574 9.47306 18.0672 8.49993C21.5596 7.52681 25.2992 8.48707 27.919 11.0287C28.0445 11.1468 28.1573 11.279 28.2539 11.4216C29.4499 12.7433 30.2855 14.3609 30.6769 16.1118C31.425 19.5974 30.3753 23.23 27.8925 25.753L27.8926 25.7532Z" fill="#1F2937"/>
<path d="M29.9319 114.466C29.2114 116.097 28.0707 117.499 26.632 118.527C23.9616 120.465 20.5419 120.998 17.4226 119.958C14.3045 118.919 11.8585 116.433 10.8363 113.265C9.81301 110.095 10.3367 106.62 12.244 103.907C14.1811 101.179 17.2877 99.5616 20.5983 99.5583C24.1192 99.563 27.3949 101.393 29.2861 104.412C31.1761 107.432 31.4189 111.223 29.9318 114.466L29.9319 114.466Z" fill="#1F2937"/>
<path d="M113.417 65.4991C113.411 67.5389 112.82 69.532 111.717 71.2348C110.613 72.9378 109.045 74.277 107.204 75.0875C105.914 75.6794 104.517 75.9823 103.104 75.9788C102.649 76.0185 102.192 76.0185 101.737 75.9788C98.4316 75.5004 95.5586 73.4255 94.0279 70.4101C92.4958 67.3949 92.4958 63.8123 94.0279 60.798C95.5587 57.7828 98.4316 55.7066 101.737 55.2281C102.186 55.1182 102.643 55.048 103.104 55.0188C104.517 55.0153 105.914 55.3182 107.204 55.91C109.045 56.7206 110.613 58.0598 111.717 59.7627C112.82 61.4657 113.411 63.4588 113.417 65.4985V65.4991Z" fill="#1F2937"/>
<path d="M80.0081 64.495C80.0046 65.7284 79.8596 66.9576 79.5748 68.1562C78.3864 73.2973 74.7791 77.5114 69.9331 79.4193C65.0873 81.3272 59.6279 80.6841 55.3401 77.7008C51.0524 74.7166 48.4894 69.7756 48.4894 64.4951C48.4894 59.2145 51.0526 54.2735 55.3401 51.2893C59.6279 48.306 65.0871 47.663 69.9331 49.5708C74.7789 51.4787 78.3862 55.6926 79.5748 60.8339C79.8596 62.0326 80.0046 63.2616 80.0081 64.4951V64.495Z" fill="#1F2937"/>
<path d="M195.075 98.0261C189.86 98.0261 184.845 97.1904 180.032 95.5189C175.285 93.7806 171.607 91.5743 169 88.9L171.908 83.1837C174.382 85.5906 177.692 87.6297 181.837 89.3012C186.049 90.9057 190.461 91.708 195.075 91.708C199.487 91.708 203.064 91.1732 205.805 90.1035C208.613 88.9669 210.652 87.4626 211.923 85.5906C213.26 83.7185 213.928 81.6459 213.928 79.3728C213.928 76.6316 213.126 74.4253 211.522 72.7539C209.984 71.0824 207.945 69.7787 205.404 68.8427C202.863 67.8398 200.055 66.9707 196.98 66.2352C193.905 65.4998 190.829 64.7309 187.754 63.9286C184.678 63.0595 181.837 61.9229 179.229 60.5189C176.689 59.1149 174.616 57.2763 173.011 55.0031C171.474 52.6631 170.705 49.6211 170.705 45.877C170.705 42.4004 171.607 39.2247 173.413 36.3498C175.285 33.4081 178.126 31.068 181.937 29.3297C185.748 27.5246 190.628 26.622 196.579 26.622C200.523 26.622 204.435 27.1903 208.312 28.3269C212.19 29.3966 215.533 30.9009 218.341 32.8398L215.834 38.7567C212.825 36.751 209.616 35.2801 206.206 34.3441C202.863 33.4081 199.621 32.9401 196.479 32.9401C192.266 32.9401 188.79 33.5084 186.049 34.6449C183.308 35.7815 181.268 37.3192 179.931 39.2581C178.661 41.1301 178.026 43.2696 178.026 45.6765C178.026 48.4176 178.795 50.6239 180.332 52.2954C181.937 53.9668 184.01 55.2706 186.55 56.2066C189.158 57.1426 191.999 57.9783 195.075 58.7137C198.15 59.4492 201.192 60.2515 204.201 61.1206C207.276 61.9898 210.084 63.1264 212.625 64.5304C215.232 65.8675 217.305 67.6727 218.842 69.9458C220.447 72.219 221.249 75.1942 221.249 78.8713C221.249 82.2811 220.313 85.4568 218.441 88.3986C216.569 91.2735 213.694 93.6135 209.817 95.4186C206.006 97.1569 201.092 98.0261 195.075 98.0261Z" fill="#1F2937"/>
<path d="M275.728 98.0261C266.77 98.0261 259.716 95.4521 254.568 90.304C249.42 85.156 246.846 77.5342 246.846 67.4387V27.2237H254.267V67.1378C254.267 75.4282 256.139 81.5457 259.883 85.4903C263.627 89.4349 268.909 91.4072 275.728 91.4072C282.615 91.4072 287.93 89.4349 291.674 85.4903C295.418 81.5457 297.29 75.4282 297.29 67.1378V27.2237H304.511V67.4387C304.511 77.5342 301.937 85.156 296.789 90.304C291.707 95.4521 284.687 98.0261 275.728 98.0261Z" fill="#1F2937"/>
<path d="M336.903 97.4244V27.2237H363.178C369.128 27.2237 374.243 28.1932 378.521 30.132C382.8 32.0041 386.076 34.7452 388.35 38.3555C390.69 41.899 391.86 46.2113 391.86 51.2925C391.86 56.24 390.69 60.5189 388.35 64.1292C386.076 67.6727 382.8 70.4138 378.521 72.3527C374.243 74.2916 369.128 75.261 363.178 75.261H341.014L344.324 71.751V97.4244H336.903ZM344.324 72.3527L341.014 68.7424H362.977C369.997 68.7424 375.312 67.2381 378.923 64.2295C382.6 61.154 384.438 56.8417 384.438 51.2925C384.438 45.6765 382.6 41.3307 378.923 38.2553C375.312 35.1798 369.997 33.6421 362.977 33.6421H341.014L344.324 30.132V72.3527Z" fill="#1F2937"/>
<path d="M424.554 58.6134H461.66V64.9315H424.554V58.6134ZM425.356 91.006H467.577V97.4244H417.935V27.2237H466.073V33.6421H425.356V91.006Z" fill="#1F2937"/>
<path d="M495.05 97.4244V27.2237H521.325C527.275 27.2237 532.39 28.1932 536.669 30.132C540.948 32.0041 544.224 34.7452 546.497 38.3555C548.837 41.899 550.007 46.2113 550.007 51.2925C550.007 56.24 548.837 60.5189 546.497 64.1292C544.224 67.6727 540.948 70.4138 536.669 72.3527C532.39 74.2247 527.275 75.1607 521.325 75.1607H499.162L502.471 71.751V97.4244H495.05ZM542.987 97.4244L524.935 71.9516H532.958L551.11 97.4244H542.987ZM502.471 72.3527L499.162 68.8427H521.124C528.144 68.8427 533.46 67.305 537.07 64.2295C540.747 61.154 542.586 56.8417 542.586 51.2925C542.586 45.6765 540.747 41.3307 537.07 38.2553C533.46 35.1798 528.144 33.6421 521.124 33.6421H499.162L502.471 30.132V72.3527Z" fill="#1F2937"/>
<path d="M608.038 98.0261C602.757 98.0261 597.876 97.1569 593.397 95.4186C588.917 93.6135 585.039 91.1063 581.763 87.8972C578.487 84.688 575.913 80.9105 574.041 76.5648C572.236 72.219 571.333 67.4721 571.333 62.3241C571.333 57.176 572.236 52.4291 574.041 48.0834C575.913 43.7376 578.487 39.9601 581.763 36.751C585.106 33.5418 589.017 31.068 593.497 29.3297C597.976 27.5246 602.857 26.622 608.139 26.622C613.22 26.622 618 27.4912 622.48 29.2295C626.959 30.9009 630.737 33.4415 633.812 36.8512L629.099 41.5647C626.224 38.623 623.048 36.517 619.571 35.2467C616.095 33.9095 612.351 33.2409 608.339 33.2409C604.127 33.2409 600.216 33.9764 596.606 35.4472C592.995 36.8512 589.853 38.8904 587.179 41.5647C584.504 44.1722 582.398 47.2476 580.861 50.7911C579.39 54.2677 578.654 58.112 578.654 62.3241C578.654 66.5361 579.39 70.4138 580.861 73.9573C582.398 77.4339 584.504 80.5094 587.179 83.1837C589.853 85.7911 592.995 87.8303 596.606 89.3012C600.216 90.7052 604.127 91.4072 608.339 91.4072C612.351 91.4072 616.095 90.7386 619.571 89.4014C623.048 88.0643 626.224 85.9248 629.099 82.9831L633.812 87.6966C630.737 91.1063 626.959 93.6803 622.48 95.4186C618 97.1569 613.186 98.0261 608.038 98.0261Z" fill="#1F2937"/>
<path d="M659.661 97.4244V27.2237H667.082V91.006H706.395V97.4244H659.661Z" fill="#1F2937"/>
<path d="M755.753 98.0261C746.794 98.0261 739.74 95.4521 734.592 90.304C729.444 85.156 726.87 77.5342 726.87 67.4387V27.2237H734.291V67.1378C734.291 75.4282 736.164 81.5457 739.908 85.4903C743.652 89.4349 748.933 91.4072 755.753 91.4072C762.639 91.4072 767.954 89.4349 771.698 85.4903C775.442 81.5457 777.314 75.4282 777.314 67.1378V27.2237H784.535V67.4387C784.535 77.5342 781.961 85.156 776.813 90.304C771.732 95.4521 764.712 98.0261 755.753 98.0261Z" fill="#1F2937"/>
<path d="M836.282 98.0261C831.067 98.0261 826.053 97.1904 821.239 95.5189C816.492 93.7806 812.815 91.5743 810.208 88.9L813.116 83.1837C815.59 85.5906 818.899 87.6297 823.044 89.3012C827.256 90.9057 831.669 91.708 836.282 91.708C840.695 91.708 844.272 91.1732 847.013 90.1035C849.821 88.9669 851.86 87.4626 853.13 85.5906C854.467 83.7185 855.136 81.6459 855.136 79.3728C855.136 76.6316 854.334 74.4253 852.729 72.7539C851.191 71.0824 849.152 69.7787 846.612 68.8427C844.071 67.8398 841.263 66.9707 838.188 66.2352C835.112 65.4998 832.037 64.7309 828.961 63.9286C825.886 63.0595 823.044 61.9229 820.437 60.5189C817.896 59.1149 815.824 57.2763 814.219 55.0031C812.681 52.6631 811.913 49.6211 811.913 45.877C811.913 42.4004 812.815 39.2247 814.62 36.3498C816.492 33.4081 819.334 31.068 823.145 29.3297C826.955 27.5246 831.836 26.622 837.786 26.622C841.731 26.622 845.642 27.1903 849.52 28.3269C853.398 29.3966 856.741 30.9009 859.549 32.8398L857.042 38.7567C854.033 36.751 850.824 35.2801 847.414 34.3441C844.071 33.4081 840.828 32.9401 837.686 32.9401C833.474 32.9401 829.998 33.5084 827.256 34.6449C824.515 35.7815 822.476 37.3192 821.139 39.2581C819.869 41.1301 819.233 43.2696 819.233 45.6765C819.233 48.4176 820.002 50.6239 821.54 52.2954C823.145 53.9668 825.217 55.2706 827.758 56.2066C830.365 57.1426 833.207 57.9783 836.282 58.7137C839.358 59.4492 842.4 60.2515 845.408 61.1206C848.484 61.9898 851.292 63.1264 853.832 64.5304C856.44 65.8675 858.512 67.6727 860.05 69.9458C861.655 72.219 862.457 75.1942 862.457 78.8713C862.457 82.2811 861.521 85.4568 859.649 88.3986C857.777 91.2735 854.902 93.6135 851.024 95.4186C847.213 97.1569 842.299 98.0261 836.282 98.0261Z" fill="#1F2937"/>
<path d="M901.315 97.4244V33.6421H876.644V27.2237H933.407V33.6421H908.736V97.4244H901.315Z" fill="#1F2937"/>
<path d="M961.91 58.6134H999.016V64.9315H961.91V58.6134ZM962.712 91.006H1004.93V97.4244H955.291V27.2237H1003.43V33.6421H962.712V91.006Z" fill="#1F2937"/>
<path d="M1032.41 97.4244V27.2237H1058.68C1064.63 27.2237 1069.75 28.1932 1074.02 30.132C1078.3 32.0041 1081.58 34.7452 1083.85 38.3555C1086.19 41.899 1087.36 46.2113 1087.36 51.2925C1087.36 56.24 1086.19 60.5189 1083.85 64.1292C1081.58 67.6727 1078.3 70.4138 1074.02 72.3527C1069.75 74.2247 1064.63 75.1607 1058.68 75.1607H1036.52L1039.83 71.751V97.4244H1032.41ZM1080.34 97.4244L1062.29 71.9516H1070.31L1088.47 97.4244H1080.34ZM1039.83 72.3527L1036.52 68.8427H1058.48C1065.5 68.8427 1070.82 67.305 1074.43 64.2295C1078.1 61.154 1079.94 56.8417 1079.94 51.2925C1079.94 45.6765 1078.1 41.3307 1074.43 38.2553C1070.82 35.1798 1065.5 33.6421 1058.48 33.6421H1036.52L1039.83 30.132V72.3527Z" fill="#1F2937"/>
</svg>
