<svg width="215" height="26" viewBox="0 0 215 26" fill="none" xmlns="http://www.w3.org/2000/svg">
<path d="M2.61682 6.96255C2.30375 6.82512 2.01342 6.63918 1.75605 6.41122C0.63994 8.34981 0.0354398 10.5507 0.00150719 12.7991C-0.0323689 15.0476 0.505327 17.2666 1.56252 19.2393C1.8083 18.9913 2.08794 18.781 2.39262 18.6153C1.45182 16.8134 0.978218 14.7954 1.01756 12.7537C1.05667 10.7121 1.60734 8.71475 2.61682 6.95189V6.96255ZM12.7262 1.59329e-05C10.7024 -0.00323404 8.70763 0.490757 6.91014 1.44042C7.12635 1.71597 7.29824 2.02494 7.41942 2.35549C9.06046 1.49171 10.8798 1.04065 12.7262 1.03994C15.1082 1.03878 17.4338 1.7791 19.3934 3.16216C21.3527 4.54521 22.8524 6.50543 23.6927 8.78133C24.5328 11.057 24.6735 13.5402 24.096 15.9002C23.5183 18.2596 22.2499 20.3833 20.4599 21.9879C18.6697 23.5925 16.4431 24.6015 14.0767 24.8808C11.7106 25.1601 9.31724 24.6961 7.21569 23.5509C7.05654 23.8615 6.85396 24.1468 6.6148 24.3985C8.89224 25.6738 11.4975 26.2073 14.0806 25.9274C16.6636 25.6476 19.1011 24.5677 21.0655 22.8327C23.0304 21.0977 24.4284 18.7907 25.072 16.2214C25.7155 13.6519 25.574 10.9428 24.6664 8.4578C23.7588 5.97278 22.1285 3.83083 19.994 2.31894C17.8598 0.807221 15.3237 -0.00176696 12.7262 0.000550714L12.7262 1.59329e-05Z" fill="#FBCD1A"/>
<path d="M19.5299 16.5357C18.485 18.6338 16.5677 20.1378 14.3127 20.6283C12.0581 21.1188 9.7067 20.5435 7.91503 19.0625C6.123 17.5817 5.08169 15.3536 5.08169 12.9997C5.08169 10.6457 6.123 8.41769 7.91503 6.93687C9.70682 5.45582 12.0582 4.88056 14.3127 5.37108C16.5677 5.86158 18.485 7.36558 19.5299 9.46367C19.8032 9.39426 20.0838 9.35944 20.3653 9.35967C20.4501 9.35457 20.5351 9.35457 20.6199 9.35967C19.5247 6.88505 17.3766 5.06187 14.7937 4.41465C12.2107 3.76719 9.47995 4.36799 7.38736 6.0438C5.29454 7.71936 4.07227 10.2842 4.07227 12.9998C4.07227 15.7153 5.29454 18.28 7.38736 19.9558C9.47995 21.6316 12.2107 22.2324 14.7937 21.5849C17.3765 20.9377 19.5246 19.1145 20.6199 16.6399C20.5351 16.645 20.4501 16.645 20.3653 16.6399C20.0838 16.6401 19.8032 16.6053 19.5299 16.5359V16.5357Z" fill="#FBCD1A"/>
<path d="M5.50952 5.1114C5.12711 5.5014 4.60871 5.7203 4.06829 5.71982C3.87731 5.71982 3.68724 5.69359 3.50308 5.64183C3.17318 5.54526 2.87216 5.36674 2.62706 5.12183C2.13552 4.59093 1.95295 3.83576 2.14575 3.13238C2.33855 2.42876 2.87876 1.88024 3.56876 1.6871C4.25859 1.49396 4.99725 1.68455 5.51474 2.18898C5.53952 2.21243 5.5618 2.23866 5.5809 2.26698C5.81712 2.5293 5.98218 2.85035 6.05949 3.19786C6.20727 3.88965 5.99992 4.61063 5.50951 5.11136L5.50952 5.1114Z" fill="#FBCD1A"/>
<path d="M5.91241 22.7186C5.77008 23.0422 5.54477 23.3206 5.26059 23.5246C4.73312 23.9093 4.05764 24.0149 3.4415 23.8085C2.82559 23.6024 2.34244 23.109 2.14053 22.4802C1.93841 21.8511 2.04186 21.1614 2.41859 20.6228C2.80123 20.0815 3.41486 19.7604 4.06877 19.7598C4.76425 19.7607 5.41129 20.124 5.78484 20.7231C6.15817 21.3225 6.20614 22.0749 5.91239 22.7186L5.91241 22.7186Z" fill="#FBCD1A"/>
<path d="M22.4029 12.9997C22.4018 13.4046 22.2852 13.8002 22.0671 14.1381C21.8491 14.4761 21.5394 14.7419 21.1757 14.9028C20.9211 15.0203 20.645 15.0804 20.3659 15.0797C20.276 15.0876 20.1858 15.0876 20.096 15.0797C19.443 14.9847 18.8755 14.5729 18.5731 13.9745C18.2705 13.376 18.2705 12.665 18.5731 12.0667C18.8755 11.4683 19.443 11.0562 20.096 10.9612C20.1847 10.9394 20.2749 10.9255 20.3659 10.9197C20.6451 10.919 20.9211 10.9791 21.1757 11.0966C21.5395 11.2574 21.8491 11.5232 22.0671 11.8612C22.2852 12.1992 22.4018 12.5948 22.4029 12.9996V12.9997Z" fill="#FBCD1A"/>
<path d="M15.8039 12.8005C15.8032 13.0453 15.7745 13.2892 15.7183 13.5271C15.4836 14.5475 14.771 15.3839 13.8138 15.7625C12.8566 16.1412 11.7783 16.0136 10.9313 15.4215C10.0844 14.8292 9.57812 13.8485 9.57812 12.8005C9.57812 11.7524 10.0844 10.7718 10.9313 10.1795C11.7783 9.58739 12.8566 9.45977 13.8138 9.83841C14.771 10.2171 15.4835 11.0534 15.7183 12.0738C15.7745 12.3117 15.8032 12.5557 15.8039 12.8005V12.8005Z" fill="#FBCD1A"/>
<path d="M38.5322 19.4555C37.5021 19.4555 36.5117 19.2896 35.5608 18.9579C34.6232 18.6129 33.8969 18.175 33.3818 17.6442L33.9563 16.5097C34.4449 16.9874 35.0986 17.3921 35.9174 17.7238C36.7494 18.0423 37.621 18.2015 38.5322 18.2015C39.4038 18.2015 40.1104 18.0954 40.6518 17.8831C41.2065 17.6575 41.6093 17.3589 41.8602 16.9874C42.1243 16.6158 42.2563 16.2045 42.2563 15.7533C42.2563 15.2093 42.0979 14.7714 41.7809 14.4396C41.4772 14.1079 41.0744 13.8491 40.5726 13.6634C40.0707 13.4643 39.5161 13.2918 38.9086 13.1459C38.3011 12.9999 37.6936 12.8473 37.0862 12.6881C36.4787 12.5156 35.9174 12.29 35.4024 12.0113C34.9005 11.7327 34.4912 11.3677 34.1742 10.9166C33.8705 10.4522 33.7186 9.84839 33.7186 9.1053C33.7186 8.41529 33.8969 7.78499 34.2534 7.2144C34.6232 6.63054 35.1845 6.16611 35.9372 5.82111C36.69 5.46283 37.654 5.28369 38.8294 5.28369C39.6085 5.28369 40.3811 5.39648 41.147 5.62206C41.913 5.83437 42.5733 6.13294 43.128 6.51775L42.6327 7.6921C42.0384 7.29402 41.4046 7.00209 40.731 6.81632C40.0707 6.63054 39.4302 6.53766 38.8096 6.53766C37.9776 6.53766 37.2908 6.65045 36.7494 6.87603C36.2079 7.10161 35.8052 7.40681 35.541 7.79162C35.2901 8.16317 35.1647 8.58779 35.1647 9.06549C35.1647 9.60954 35.3165 10.0474 35.6203 10.3792C35.9372 10.7109 36.3466 10.9697 36.8484 11.1554C37.3635 11.3412 37.9247 11.5071 38.5322 11.653C39.1397 11.799 39.7406 11.9582 40.3349 12.1307C40.9423 12.3032 41.497 12.5288 41.9988 12.8075C42.5139 13.0729 42.9233 13.4312 43.227 13.8823C43.5439 14.3335 43.7024 14.924 43.7024 15.6538C43.7024 16.3305 43.5175 16.9608 43.1478 17.5447C42.778 18.1153 42.2101 18.5797 41.4442 18.938C40.6914 19.283 39.7208 19.4555 38.5322 19.4555Z" fill="#FBCD1A"/>
<path d="M54.4634 19.4555C52.6938 19.4555 51.3006 18.9446 50.2837 17.9229C49.2668 16.9011 48.7584 15.3884 48.7584 13.3847V5.40312H50.2243V13.325C50.2243 14.9704 50.5941 16.1846 51.3336 16.9675C52.0731 17.7504 53.1164 18.1418 54.4634 18.1418C55.8237 18.1418 56.8736 17.7504 57.6131 16.9675C58.3526 16.1846 58.7224 14.9704 58.7224 13.325V5.40312H60.1487V13.3847C60.1487 15.3884 59.6402 16.9011 58.6234 17.9229C57.6197 18.9446 56.2331 19.4555 54.4634 19.4555Z" fill="#FBCD1A"/>
<path d="M66.5469 19.3361V5.40312H71.7369C72.9122 5.40312 73.9225 5.59552 74.7677 5.98034C75.6129 6.35188 76.26 6.89593 76.709 7.61248C77.1712 8.31577 77.4023 9.17165 77.4023 10.1801C77.4023 11.1621 77.1712 12.0113 76.709 12.7279C76.26 13.4312 75.6129 13.9752 74.7677 14.36C73.9225 14.7448 72.9122 14.9372 71.7369 14.9372H67.3591L68.0128 14.2406V19.3361H66.5469ZM68.0128 14.36L67.3591 13.6435H71.6973C73.0839 13.6435 74.1338 13.3449 74.8469 12.7478C75.5733 12.1374 75.9364 11.2815 75.9364 10.1801C75.9364 9.06549 75.5733 8.20298 74.8469 7.59258C74.1338 6.98218 73.0839 6.67699 71.6973 6.67699H67.3591L68.0128 5.98034V14.36Z" fill="#FBCD1A"/>
<path d="M83.8603 11.6331H91.1897V12.8871H83.8603V11.6331ZM84.0187 18.0622H92.3584V19.3361H82.5529V5.40312H92.0613V6.67699H84.0187V18.0622Z" fill="#FBCD1A"/>
<path d="M97.785 19.3361V5.40312H102.975C104.15 5.40312 105.161 5.59552 106.006 5.98034C106.851 6.35188 107.498 6.89593 107.947 7.61248C108.409 8.31577 108.64 9.17165 108.64 10.1801C108.64 11.1621 108.409 12.0113 107.947 12.7279C107.498 13.4312 106.851 13.9752 106.006 14.36C105.161 14.7316 104.15 14.9173 102.975 14.9173H98.5972L99.2509 14.2406V19.3361H97.785ZM107.254 19.3361L103.688 14.2804H105.273L108.858 19.3361H107.254ZM99.2509 14.36L98.5972 13.6634H102.935C104.322 13.6634 105.372 13.3582 106.085 12.7478C106.811 12.1374 107.175 11.2815 107.175 10.1801C107.175 9.06549 106.811 8.20298 106.085 7.59258C105.372 6.98218 104.322 6.67699 102.935 6.67699H98.5972L99.2509 5.98034V14.36Z" fill="#FBCD1A"/>
<path d="M120.103 19.4555C119.06 19.4555 118.096 19.283 117.211 18.938C116.326 18.5797 115.56 18.0821 114.913 17.4452C114.266 16.8082 113.758 16.0585 113.388 15.196C113.031 14.3335 112.853 13.3913 112.853 12.3696C112.853 11.3478 113.031 10.4057 113.388 9.54319C113.758 8.68068 114.266 7.93095 114.913 7.29402C115.573 6.65708 116.346 6.16611 117.231 5.82111C118.116 5.46283 119.08 5.28369 120.123 5.28369C121.127 5.28369 122.071 5.45619 122.956 5.8012C123.841 6.13294 124.587 6.63718 125.194 7.31392L124.263 8.24942C123.695 7.66556 123.068 7.24757 122.381 6.99545C121.695 6.73006 120.955 6.59737 120.163 6.59737C119.331 6.59737 118.558 6.74333 117.845 7.03526C117.132 7.31392 116.511 7.71864 115.983 8.24942C115.455 8.76693 115.039 9.37733 114.735 10.0806C114.444 10.7706 114.299 11.5336 114.299 12.3696C114.299 13.2056 114.444 13.9752 114.735 14.6785C115.039 15.3685 115.455 15.9789 115.983 16.5097C116.511 17.0272 117.132 17.4319 117.845 17.7238C118.558 18.0025 119.331 18.1418 120.163 18.1418C120.955 18.1418 121.695 18.0091 122.381 17.7437C123.068 17.4783 123.695 17.0537 124.263 16.4699L125.194 17.4054C124.587 18.0821 123.841 18.593 122.956 18.938C122.071 19.283 121.12 19.4555 120.103 19.4555Z" fill="#FBCD1A"/>
<path d="M130.3 19.3361V5.40312H131.766V18.0622H139.531V19.3361H130.3Z" fill="#FBCD1A"/>
<path d="M149.281 19.4555C147.511 19.4555 146.118 18.9446 145.101 17.9229C144.084 16.9011 143.576 15.3884 143.576 13.3847V5.40312H145.041V13.325C145.041 14.9704 145.411 16.1846 146.151 16.9675C146.89 17.7504 147.934 18.1418 149.281 18.1418C150.641 18.1418 151.691 17.7504 152.43 16.9675C153.17 16.1846 153.54 14.9704 153.54 13.325V5.40312H154.966V13.3847C154.966 15.3884 154.457 16.9011 153.44 17.9229C152.437 18.9446 151.05 19.4555 149.281 19.4555Z" fill="#FBCD1A"/>
<path d="M165.187 19.4555C164.157 19.4555 163.167 19.2896 162.216 18.9579C161.278 18.6129 160.552 18.175 160.037 17.6442L160.611 16.5097C161.1 16.9874 161.754 17.3921 162.572 17.7238C163.404 18.0423 164.276 18.2015 165.187 18.2015C166.059 18.2015 166.765 18.0954 167.307 17.8831C167.861 17.6575 168.264 17.3589 168.515 16.9874C168.779 16.6158 168.911 16.2045 168.911 15.7533C168.911 15.2093 168.753 14.7714 168.436 14.4396C168.132 14.1079 167.729 13.8491 167.228 13.6634C166.726 13.4643 166.171 13.2918 165.564 13.1459C164.956 12.9999 164.349 12.8473 163.741 12.6881C163.134 12.5156 162.572 12.29 162.057 12.0113C161.555 11.7327 161.146 11.3677 160.829 10.9166C160.525 10.4522 160.374 9.84839 160.374 9.1053C160.374 8.41529 160.552 7.78499 160.908 7.2144C161.278 6.63054 161.839 6.16611 162.592 5.82111C163.345 5.46283 164.309 5.28369 165.484 5.28369C166.263 5.28369 167.036 5.39648 167.802 5.62206C168.568 5.83437 169.228 6.13294 169.783 6.51775L169.288 7.6921C168.693 7.29402 168.06 7.00209 167.386 6.81632C166.726 6.63054 166.085 6.53766 165.465 6.53766C164.633 6.53766 163.946 6.65045 163.404 6.87603C162.863 7.10161 162.46 7.40681 162.196 7.79162C161.945 8.16317 161.82 8.58779 161.82 9.06549C161.82 9.60954 161.971 10.0474 162.275 10.3792C162.592 10.7109 163.002 10.9697 163.503 11.1554C164.018 11.3412 164.58 11.5071 165.187 11.653C165.795 11.799 166.396 11.9582 166.99 12.1307C167.597 12.3032 168.152 12.5288 168.654 12.8075C169.169 13.0729 169.578 13.4312 169.882 13.8823C170.199 14.3335 170.357 14.924 170.357 15.6538C170.357 16.3305 170.172 16.9608 169.803 17.5447C169.433 18.1153 168.865 18.5797 168.099 18.938C167.346 19.283 166.376 19.4555 165.187 19.4555Z" fill="#FBCD1A"/>
<path d="M178.033 19.3361V6.67699H173.16V5.40312H184.372V6.67699H179.499V19.3361H178.033Z" fill="#FBCD1A"/>
<path d="M190.002 11.6331H197.331V12.8871H190.002V11.6331ZM190.16 18.0622H198.5V19.3361H188.694V5.40312H198.203V6.67699H190.16V18.0622Z" fill="#FBCD1A"/>
<path d="M203.927 19.3361V5.40312H209.117C210.292 5.40312 211.302 5.59552 212.147 5.98034C212.993 6.35188 213.64 6.89593 214.089 7.61248C214.551 8.31577 214.782 9.17165 214.782 10.1801C214.782 11.1621 214.551 12.0113 214.089 12.7279C213.64 13.4312 212.993 13.9752 212.147 14.36C211.302 14.7316 210.292 14.9173 209.117 14.9173H204.739L205.393 14.2406V19.3361H203.927ZM213.395 19.3361L209.83 14.2804H211.415L215 19.3361H213.395ZM205.393 14.36L204.739 13.6634H209.077C210.464 13.6634 211.514 13.3582 212.227 12.7478C212.953 12.1374 213.316 11.2815 213.316 10.1801C213.316 9.06549 212.953 8.20298 212.227 7.59258C211.514 6.98218 210.464 6.67699 209.077 6.67699H204.739L205.393 5.98034V14.36Z" fill="#FBCD1A"/>
</svg>
