<svg width="615" height="615" viewBox="0 0 615 615" fill="none" xmlns="http://www.w3.org/2000/svg">
<path d="M307.5 615C225.945 615 147.731 582.603 90.0619 524.938C32.3967 467.269 0 389.054 0 307.5C0 225.946 32.3967 147.731 90.0619 90.0619C147.731 32.3967 225.946 0 307.5 0C389.054 0 467.269 32.3967 524.938 90.0619C582.603 147.731 615 225.946 615 307.5C614.908 389.024 582.479 467.187 524.833 524.833C467.186 582.479 389.03 614.909 307.5 615ZM307.5 20.5068C231.385 20.5068 158.391 50.7434 104.564 104.565C50.7434 158.391 20.5056 231.394 20.5056 307.501C20.5056 383.608 50.7422 456.611 104.564 510.437C158.389 564.258 231.393 594.496 307.5 594.496C383.607 594.496 456.609 564.259 510.436 510.437C564.257 456.612 594.494 383.608 594.494 307.501C594.407 231.41 564.143 158.462 510.34 104.659C456.537 50.8558 383.593 20.5911 307.498 20.5045L307.5 20.5068Z" fill="black"/>
<path d="M307.5 553.5C242.258 553.5 179.687 527.583 133.556 481.449C87.4224 435.315 61.5049 372.745 61.5049 307.506C61.5049 242.266 87.4224 179.692 133.556 133.562C179.69 87.4283 242.26 61.5107 307.5 61.5107C372.739 61.5107 435.313 87.4283 481.443 133.562C527.577 179.696 553.495 242.266 553.495 307.506C553.417 372.725 527.476 435.248 481.361 481.367C435.241 527.482 372.717 553.423 307.5 553.5ZM307.5 82.0058C247.693 82.0058 190.335 105.763 148.047 148.054C105.756 190.344 81.9988 247.697 81.9988 307.507C81.9988 367.317 105.756 424.672 148.047 466.96C190.337 509.25 247.69 533.008 307.5 533.008C367.31 533.008 424.665 509.25 466.953 466.96C509.243 424.669 533.001 367.317 533.001 307.507C532.932 247.724 509.152 190.406 466.88 148.136C424.604 105.864 367.286 82.0831 307.509 82.0152L307.5 82.0058Z" fill="black"/>
<path d="M307.5 483.45C305.701 483.455 303.931 482.979 302.375 482.077L158.876 399.227C155.705 397.396 153.751 394.01 153.751 390.349V224.653C153.751 220.992 155.705 217.606 158.876 215.776L302.375 132.925C305.546 131.095 309.454 131.095 312.625 132.925L456.123 215.776C459.294 217.606 461.248 220.992 461.248 224.653V390.349C461.248 394.01 459.294 397.396 456.123 399.227L312.625 482.077C311.069 482.979 309.298 483.455 307.5 483.45ZM174.251 384.439L307.5 461.363L440.748 384.439V230.561L307.5 153.687L174.251 230.561V384.439Z" fill="black"/>
</svg>
