<svg width="45" height="45" viewBox="0 0 45 45" fill="none" xmlns="http://www.w3.org/2000/svg">
<g clip-path="url(#clip0_320_94)">
<path d="M22.5 0C34.9245 0 45 10.0755 45 22.5C45 34.9245 34.9245 45 22.5 45C10.0755 45 0 34.9245 0 22.5C0 10.0755 10.0755 0 22.5 0Z" fill="white"/>
<path d="M17.2798 33.9299C27.8908 33.9299 33.7003 25.1369 33.7003 17.5094C33.7003 17.2619 33.7003 17.0099 33.6823 16.7624C34.8118 15.9434 35.7883 14.9354 36.5623 13.7744C35.5093 14.2424 34.3933 14.5484 33.2503 14.6834C34.4563 13.9634 35.3563 12.8294 35.7883 11.4929C34.6543 12.1634 33.4168 12.6404 32.1253 12.8924C29.9383 10.5704 26.2843 10.4579 23.9623 12.6404C22.4638 14.0489 21.8293 16.1504 22.2928 18.1529C17.6533 17.9189 13.3288 15.7274 10.3993 12.1229C8.86929 14.7599 9.64779 18.1304 12.1858 19.8269C11.2678 19.7999 10.3678 19.5524 9.56679 19.1069C9.56679 19.1294 9.56679 19.1564 9.56679 19.1789C9.56679 21.9239 11.5018 24.2909 14.1973 24.8354C13.3468 25.0649 12.4558 25.1009 11.5918 24.9344C12.3478 27.2834 14.5123 28.8944 16.9828 28.9439C14.9398 30.5504 12.4153 31.4234 9.81879 31.4189C9.35979 31.4189 8.90079 31.3919 8.44629 31.3334C11.0743 33.0299 14.1478 33.9299 17.2798 33.9254" fill="#182339"/>
</g>
<defs>
<clipPath id="clip0_320_94">
<rect width="45" height="45" fill="white"/>
</clipPath>
</defs>
</svg>
